<svg xmlns="http://www.w3.org/2000/svg" width="33.875" height="18.808" viewBox="0 0 33.875 18.808">
  <g id="Group_59" data-name="Group 59" transform="translate(-1545.082 -30.275)">
    <g id="Group_37" data-name="Group 37" transform="translate(1559.371 30.275)">
      <path id="Path_1018" data-name="Path 1018" d="M1856.635,39.679a8.945,8.945,0,0,1-9.183,8.662,9.409,9.409,0,0,1-6.887-2.938c-.2.158-.387.327-.577.505a10.218,10.218,0,0,0,7.464,3.175c5.5,0,9.97-4.218,9.97-9.4s-4.473-9.4-9.97-9.4a9.914,9.914,0,0,0-9.615,6.909c.213.2.432.392.658.572a9.1,9.1,0,0,1,8.957-6.739A8.945,8.945,0,0,1,1856.635,39.679Z" transform="translate(-1837.836 -30.275)" fill="#be1e2d"/>
    </g>
    <path id="Path_1019" data-name="Path 1019" d="M1547.589,69.568a1.372,1.372,0,0,0-.344-.038c-.562.017-1.125.041-1.687.066-.159.007-.318.029-.477.044a.4.4,0,0,1,.214-.2,19.4,19.4,0,0,1,7.59-1.75,16.682,16.682,0,0,1,5.343.74,1.82,1.82,0,0,1,.854.439l-.6.164c2.569,4.974,8.968,5.7,9.571,5.8.4.067.544-.044.457-.433-.148-.655-.345-1.3-.553-1.94a10.3,10.3,0,0,1-.4-1.218,1.736,1.736,0,0,0-.175-.551l-.117.573h-.057a.741.741,0,0,1-.063-.657c.052-.148.135-.284.2-.428a1.052,1.052,0,0,0,.1-.344l-.335.192a1.935,1.935,0,0,1,.868-.824l-.352-.1.667-.212c0-.014,0-.028,0-.042a1.688,1.688,0,0,1-1.2-.867,3.7,3.7,0,0,0,1.378.361c-.216-.155-.451-.254-.47-.538.566.251.644.266,1,.189a1.487,1.487,0,0,1-.637-1.106,2.368,2.368,0,0,0,1.28.8c-.038-.028-.075-.057-.114-.084a4.07,4.07,0,0,1-1-1,.451.451,0,0,1-.066-.53,4.825,4.825,0,0,0,2.781,1.614l-.866-.61a2.766,2.766,0,0,1,1.74,1l.155-.075c.173.159.173.159.326.07a.686.686,0,0,0,.406.155c.1-.006.228.135.313.235a1.857,1.857,0,0,0,.991.59l.112-.575.558,1.195v.261a.751.751,0,0,1-.464.471.394.394,0,0,1-.424-.091.8.8,0,0,0-.59-.245,8.353,8.353,0,0,0-1.089.115,2.973,2.973,0,0,1-1.22.06.132.132,0,0,0-.093.008c-.387.255-.727.446-.785.941a5.51,5.51,0,0,0,.345,1.751,3.115,3.115,0,0,0,.321.794c.653,1.207,2.068,1.934,2.028,3.487-.049,1.915-2.24,2.855-3.836,3.212-.037.008-.08-.015-.157-.031.042-.115.08-.217.116-.318.115-.324.034-.467-.312-.484a2.265,2.265,0,0,0-.687.058c-.613.165-1.218.357-1.824.547a1.213,1.213,0,0,1-1.272-.413,4.454,4.454,0,0,0,.767-2.474l-.115-.1a8.907,8.907,0,0,0-.968.329,10.58,10.58,0,0,0-4.046,3.553,6.576,6.576,0,0,1,.846-2.482l-.105-.045-.831,1.515c-1.961-3.006-4.52-5.016-8.362-5.1a12.051,12.051,0,0,1,3.558-2.919,11.912,11.912,0,0,0-3.349,2c-.017-.2-.036-.308-.035-.418a1.324,1.324,0,0,0-.728-1.235,3.54,3.54,0,0,0-.714-.3,6.008,6.008,0,0,0-3.5.084c-.129.038-.261.067-.392.1l-.034-.087a28.979,28.979,0,0,1,3.3-1.908l-.044-.079-2.444,1.076c.141-.21.225-.325.3-.446A.79.79,0,0,0,1547.589,69.568Z" transform="translate(0 -33.805)" fill="#be1e2d"/>
  </g>
</svg>
