<svg width="352" height="352" viewBox="0 0 352 352" fill="none" xmlns="http://www.w3.org/2000/svg">
<path fill-rule="evenodd" clip-rule="evenodd" d="M176 352C273.202 352 352 273.202 352 176C352 78.7979 273.202 0 176 0C78.7979 0 0 78.7979 0 176C0 273.202 78.7979 352 176 352Z" fill="url(#paint0_linear)"/>
<path fill-rule="evenodd" clip-rule="evenodd" d="M187 253H165V121C165 90.6812 189.681 66 220 66C250.319 66 275 90.6812 275 121H253C253 102.781 238.219 88 220 88C201.781 88 187 102.781 187 121V253Z" fill="white"/>
<path fill-rule="evenodd" clip-rule="evenodd" d="M132 123.75C133.519 123.75 134.75 122.519 134.75 121C134.75 119.481 133.519 118.25 132 118.25C130.481 118.25 129.25 119.481 129.25 121C129.25 122.519 130.481 123.75 132 123.75Z" fill="black"/>
<path fill-rule="evenodd" clip-rule="evenodd" d="M220 123.75C221.519 123.75 222.75 122.519 222.75 121C222.75 119.481 221.519 118.25 220 118.25C218.481 118.25 217.25 119.481 217.25 121C217.25 122.519 218.481 123.75 220 123.75Z" fill="black"/>
<path fill-rule="evenodd" clip-rule="evenodd" d="M187 275C187 281.05 182.05 286 176 286C169.95 286 165 281.05 165 275H187Z" fill="black"/>
<path fill-rule="evenodd" clip-rule="evenodd" d="M253 148.5C253 142.45 257.95 137.5 264 137.5C270.05 137.5 275 142.45 275 148.5C275 154.55 270.05 159.5 264 159.5C257.95 159.5 253 154.55 253 148.5ZM254.375 148.5C254.375 153.794 258.706 158.125 264 158.125C269.294 158.125 273.625 153.794 273.625 148.5C273.625 143.206 269.294 138.875 264 138.875C258.706 138.875 254.375 143.206 254.375 148.5Z" fill="white"/>
<path fill-rule="evenodd" clip-rule="evenodd" d="M268.125 144.375H259.875V152.625H262.625V147.125H268.125V144.375Z" fill="white"/>
<path fill-rule="evenodd" clip-rule="evenodd" d="M253 187C253 180.95 257.95 176 264 176C270.05 176 275 180.95 275 187C275 193.05 270.05 198 264 198C257.95 198 253 193.05 253 187ZM254.375 187C254.375 192.294 258.706 196.625 264 196.625C269.294 196.625 273.625 192.294 273.625 187C273.625 181.706 269.294 177.375 264 177.375C258.706 177.375 254.375 181.706 254.375 187Z" fill="white"/>
<path fill-rule="evenodd" clip-rule="evenodd" d="M268.125 182.875H259.875V191.125H262.625V185.625H268.125V182.875Z" fill="white"/>
<path fill-rule="evenodd" clip-rule="evenodd" d="M253 225.5C253 219.45 257.95 214.5 264 214.5C270.05 214.5 275 219.45 275 225.5C275 231.55 270.05 236.5 264 236.5C257.95 236.5 253 231.55 253 225.5ZM254.375 225.5C254.375 230.794 258.706 235.125 264 235.125C269.294 235.125 273.625 230.794 273.625 225.5C273.625 220.206 269.294 215.875 264 215.875C258.706 215.875 254.375 220.206 254.375 225.5Z" fill="white"/>
<path fill-rule="evenodd" clip-rule="evenodd" d="M268.125 221.375H259.875V229.625H262.625V224.125H268.125V221.375Z" fill="white"/>
<path fill-rule="evenodd" clip-rule="evenodd" d="M154 209C157.025 209 159.5 211.475 159.5 214.5V247.5C159.5 250.525 157.025 253 154 253C150.975 253 148.5 250.525 148.5 247.5V214.5C148.5 211.475 150.975 209 154 209Z" fill="white"/>
<defs>
<linearGradient id="paint0_linear" x1="1.03712e-07" y1="352" x2="352" y2="352" gradientUnits="userSpaceOnUse">
<stop stop-color="#2762FF" stop-opacity="0.01"/>
<stop offset="1" stop-color="#2762FF"/>
</linearGradient>
</defs>
</svg>
